<svg width="64" height="64" viewBox="0 0 64 64" fill="none" xmlns="http://www.w3.org/2000/svg">
<rect width="64" height="64" rx="32" fill="#0E474C"/>
<path fill-rule="evenodd" clip-rule="evenodd" d="M26.439 19.9999C26.263 19.9998 26.0888 20.0345 25.9263 20.102C25.7639 20.1695 25.6164 20.2685 25.4923 20.3933L25.4895 20.3961L21.8857 23.9999H42.1144L38.5106 20.3961L38.5078 20.3933C38.3837 20.2685 38.2362 20.1695 38.0737 20.102C37.9113 20.0345 37.737 19.9998 37.5611 19.9999H26.439ZM44 26.6666H20V29.3333C20 29.6869 20.1405 30.026 20.3906 30.2761C20.6325 30.518 20.9577 30.6573 21.2988 30.6661C21.7752 30.6317 22.2289 30.4477 22.5949 30.1397C22.62 30.1186 22.6459 30.0984 22.6724 30.0792C23.0588 29.8 23.5233 29.6497 24 29.6497C24.4767 29.6497 24.9413 29.8 25.3277 30.0792C25.3542 30.0984 25.3801 30.1186 25.4052 30.1397C25.7623 30.4402 26.203 30.6228 26.6667 30.6634C27.1305 30.6228 27.5711 30.4402 27.9282 30.1397C27.9533 30.1186 27.9792 30.0984 28.0058 30.0792C28.3921 29.8 28.8567 29.6497 29.3334 29.6497C29.8101 29.6497 30.2746 29.8 30.661 30.0792C30.6876 30.0984 30.7134 30.1186 30.7385 30.1397C31.0956 30.4402 31.5363 30.6228 32 30.6634C32.4638 30.6228 32.9045 30.4402 33.2616 30.1397C33.2867 30.1186 33.3125 30.0984 33.3391 30.0792C33.7255 29.8 34.19 29.6497 34.6667 29.6497C35.1434 29.6497 35.608 29.8 35.9943 30.0792C36.0209 30.0984 36.0467 30.1186 36.0718 30.1397C36.4289 30.4402 36.8696 30.6228 37.3334 30.6634C37.7971 30.6228 38.2378 30.4402 38.5949 30.1397C38.62 30.1186 38.6458 30.0984 38.6724 30.0792C39.0588 29.8 39.5233 29.6497 40 29.6497C40.4767 29.6497 40.9413 29.8 41.3277 30.0792C41.3542 30.0984 41.3801 30.1186 41.4052 30.1397C41.7711 30.4477 42.2249 30.6317 42.7013 30.6661C43.0424 30.6573 43.3676 30.518 43.6095 30.2761C43.8596 30.026 44 29.6869 44 29.3333V26.6666ZM41.3334 33.0951C40.859 32.9402 40.4091 32.7136 40 32.4219C39.2414 32.963 38.3424 33.2797 37.4066 33.3312C37.3578 33.3339 37.3089 33.3339 37.2601 33.3312C36.3243 33.2797 35.4254 32.963 34.6667 32.4219C33.908 32.963 33.0091 33.2797 32.0733 33.3312C32.0245 33.3339 31.9756 33.3339 31.9268 33.3312C30.991 33.2797 30.092 32.963 29.3334 32.4219C28.5747 32.963 27.6758 33.2797 26.74 33.3312C26.6912 33.3339 26.6422 33.3339 26.5934 33.3312C25.6576 33.2797 24.7587 32.963 24 32.4219C23.591 32.7136 23.1411 32.9402 22.6667 33.0951V42.6666C22.6667 43.0202 22.8072 43.3593 23.0572 43.6094C23.3073 43.8594 23.6464 43.9999 24 43.9999H26.6667V39.9999C26.6667 38.9391 27.0881 37.9216 27.8383 37.1715C28.5884 36.4213 29.6058 35.9999 30.6667 35.9999H33.3334C34.3942 35.9999 35.4117 36.4213 36.1618 37.1715C36.9119 37.9216 37.3334 38.9391 37.3334 39.9999V43.9999H40C40.3537 43.9999 40.6928 43.8594 40.9428 43.6094C41.1929 43.3593 41.3334 43.0202 41.3334 42.6666V33.0951ZM34.6667 43.9999V39.9999C34.6667 39.6463 34.5262 39.3072 34.2762 39.0571C34.0261 38.8071 33.687 38.6666 33.3334 38.6666H30.6667C30.3131 38.6666 29.9739 38.8071 29.7239 39.0571C29.4738 39.3072 29.3334 39.6463 29.3334 39.9999V43.9999H34.6667ZM28 46.6666H40C41.0609 46.6666 42.0783 46.2452 42.8285 45.495C43.5786 44.7449 44 43.7275 44 42.6666V33.1045C44.5572 32.9075 45.0693 32.5876 45.4951 32.1617C46.2453 31.4115 46.6667 30.3941 46.6667 29.3333V25.3333C46.6667 24.9796 46.5262 24.6405 46.2762 24.3904L40.399 18.5133C40.3984 18.5127 40.3978 18.5121 40.3972 18.5115C40.0255 18.138 39.5836 17.8416 39.0969 17.6394C38.6098 17.437 38.0875 17.333 37.56 17.3333C37.5599 17.3333 37.5602 17.3333 37.56 17.3333H26.4405M28 46.6666H24C22.9392 46.6666 21.9218 46.2452 21.1716 45.495C20.4215 44.7449 20 43.7275 20 42.6666V33.1045C19.4428 32.9075 18.9308 32.5876 18.5049 32.1617C17.7548 31.4115 17.3334 30.3941 17.3334 29.3333V25.3333C17.3334 24.9796 17.4738 24.6405 17.7239 24.3904L23.6011 18.5133C23.6016 18.5127 23.6021 18.5122 23.6027 18.5117C23.9745 18.1381 24.4164 17.8416 24.9032 17.6394C25.3903 17.437 25.9131 17.333 26.4405 17.3333" fill="#2DEBFC"/>
</svg>
